<svg id="Layer_2" data-name="Layer 2" xmlns="http://www.w3.org/2000/svg" viewBox="0 0 132.49 186.37"><defs><style>.cls-1{fill:#7bc794;}.cls-2,.cls-4{fill:none;stroke:#231f20;stroke-miterlimit:10;}.cls-2{stroke-width:5px;}.cls-3{fill:#231f20;}.cls-4{stroke-width:6px;}</style></defs><title>bag</title><polygon id="_Path_" data-name="&lt;Path&gt;" class="cls-1" points="16.28 57.47 102.73 58.37 114.35 178.64 2.61 177.98 16.28 57.47"/><path id="_Path_2" data-name="&lt;Path&gt;" class="cls-2" d="M339,349.77l14.56-123.39a6.92,6.92,0,0,1,6.91-6.11l87.28,0.54a6.92,6.92,0,0,1,6.84,6.26l11.82,123.85a6.92,6.92,0,0,1-6.95,7.57l-113.66-1A6.92,6.92,0,0,1,339,349.77Z" transform="translate(-336.42 -174.63)"/><path id="_Path_3" data-name="&lt;Path&gt;" class="cls-3" d="M374.05,322.25l69.32,0.58s5.84-2.93-.15-5.42l-68.51-1S368.51,318.9,374.05,322.25Z" transform="translate(-336.42 -174.63)"/><path id="_Path_4" data-name="&lt;Path&gt;" class="cls-3" d="M360.42,336.62l85.65-.39s7.25-3-.11-5.42H361.32S353.62,333.35,360.42,336.62Z" transform="translate(-336.42 -174.63)"/><path id="_Path_5" data-name="&lt;Path&gt;" class="cls-3" d="M357.78,350.8l90.54-.68s7.68-3-.1-5.42l-89.48.28S350.6,347.55,357.78,350.8Z" transform="translate(-336.42 -174.63)"/><circle id="_Path_6" data-name="&lt;Path&gt;" class="cls-3" cx="363.37" cy="319.45" r="2.67" transform="translate(-354.63 -152.64) rotate(-3.38)"/><circle id="_Path_7" data-name="&lt;Path&gt;" class="cls-3" cx="404.48" cy="232.54" r="2.67" transform="translate(-349.43 -150.37) rotate(-3.38)"/><circle id="_Path_8" data-name="&lt;Path&gt;" class="cls-3" cx="416.34" cy="232.68" r="2.67" transform="translate(-349.42 -149.67) rotate(-3.38)"/><circle id="_Path_9" data-name="&lt;Path&gt;" class="cls-3" cx="392.79" cy="232.57" r="2.67" transform="translate(-349.46 -151.05) rotate(-3.38)"/><circle id="_Path_10" data-name="&lt;Path&gt;" class="cls-4" cx="369.13" cy="247.49" r="5.58" transform="translate(-350.38 -152.42) rotate(-3.38)"/><circle id="_Path_11" data-name="&lt;Path&gt;" class="cls-4" cx="439.77" cy="247.82" r="5.58" transform="translate(-350.27 -148.26) rotate(-3.38)"/><path id="_Path_12" data-name="&lt;Path&gt;" class="cls-2" d="M368.8,241.92l1.08-35.38s8.33-28.54,34-29.39,35.73,28.27,35.73,28.27l0.85,37" transform="translate(-336.42 -174.63)"/></svg>